<?xml version="1.0" encoding="UTF-8"?>
<svg xmlns="http://www.w3.org/2000/svg" viewBox="0 0 626.88 801.74">
  <defs>
    <style>
      .cls-1 {
        fill: #d1d3d3;
      }

      .cls-2 {
        fill: none;
        stroke: #424242;
        stroke-miterlimit: 10;
        stroke-width: 10px;
      }

      .cls-3 {
        fill: #a4a9ad;
      }

      .cls-4 {
        fill: #e8e8e8;
      }
    </style>
  </defs>
  <g id="Layer_2" data-name="Layer 2">
    <polygon class="cls-4" points="493.57 1.54 .2 1.54 .2 801.54 626.88 801.54 626.88 134.86 493.57 1.54"/>
    <polygon points="515.2 69.37 1.2 69.37 1.2 2.71 494.57 2.71 515.2 69.37"/>
    <polygon class="cls-1" points="493.57 134.86 626.88 134.86 493.57 1.54 493.57 134.86"/>
    <path d="m354.61,250.07l48.12-1.97-36.09,123.88c-4.08,13.68-6.12,24.07-6.12,31.17,0,3.95,1.58,7.46,4.73,10.55,3.16,3.09,6.77,4.64,10.85,4.64,9.47,0,21.37-5.23,35.71-15.68,14.33-10.46,26.2-25.38,35.61-44.78,9.4-19.4,14.1-40.08,14.1-62.04,0-36.3-11.67-66.11-35.01-89.46-23.34-23.34-53.75-35.01-91.24-35.01-32.35,0-61.74,7.59-88.18,22.77s-47.41,37.23-62.93,66.14c-15.52,28.92-23.28,59.93-23.28,93.05,0,45.48,14.5,82.71,43.5,111.69s65.92,43.47,110.76,43.47c36.95,0,70.09-9.91,99.42-29.73,29.33-19.83,50.11-46.08,62.34-78.76h12.03c-15.78,38.66-38.76,68.29-68.94,88.87s-65.26,30.87-105.24,30.87c-50.63,0-92.39-16.34-125.26-49.02-32.88-32.68-49.32-74.07-49.32-124.18,0-34.45,8.19-66.38,24.56-95.77s39.26-52.04,68.65-67.96c29.39-15.91,61.97-23.87,97.75-23.87,29.06,0,54.48,5.82,76.24,17.46,21.76,11.64,38.1,27.98,49.02,49.02,10.91,21.04,16.37,43.27,16.37,66.68,0,27.35-5.89,52.24-17.66,74.67-11.77,22.42-26.43,38.99-43.99,49.71s-36.46,16.08-56.71,16.08c-13.02,0-22.95-3.22-29.79-9.67-6.84-6.44-10.26-14.53-10.26-24.26,0-7.63,1.54-17.11,4.64-28.43-10.91,18.16-19.31,30.66-25.23,37.5-8.28,9.34-16.49,16.18-24.63,20.52-5.39,2.9-11.5,4.34-18.33,4.34-9.2,0-16.98-3.71-23.35-11.15-6.38-7.43-9.56-18.18-9.56-32.25,0-21.96,4.35-42.74,13.05-62.34,8.7-19.59,18.92-35.77,30.65-48.53,11.73-12.75,24.46-22.88,38.17-30.38,6.33-3.55,13.12-5.33,20.37-5.33s13.48,2.31,18.29,6.93,8.08,12.66,9.79,24.13l6.38-23.56h.02Zm-30.18,6.71c-2.63,0-5.95,1.41-9.96,4.24-4.01,2.83-9.5,10.42-16.47,22.78s-13.58,28.21-19.83,47.54c-6.25,19.33-9.37,35.05-9.37,47.15,0,5.66,1.25,10.06,3.75,13.22s5.13,4.73,7.89,4.73c3.68,0,8.74-3.09,15.19-9.27,11.18-10.65,21.17-26.4,29.98-47.25,8.81-20.84,13.22-40.01,13.22-57.5,0-8.94-1.71-15.71-5.13-20.32-2.5-3.55-5.59-5.33-9.27-5.33h0Z"/>
    <g>
      <path class="cls-3" d="m40.08,722.54v-113.31h57.52c11.95,0,20.67,3.02,26.15,9.05,5.48,6.03,8.22,12.92,8.22,20.67,0,5.64-1.59,10.75-4.77,15.32-3.18,4.56-7.93,7.71-14.24,9.42,14.66,3.54,22,12.34,22,26.4,0,8.41-2.59,15.92-7.76,22.54-5.17,6.61-16.23,9.92-33.16,9.92h-53.96Zm32.04-69.89h16.1c4.04,0,6.89-1.02,8.55-3.07,1.66-2.05,2.49-4.23,2.49-6.56,0-6.31-3.87-9.46-11.62-9.46h-15.52v19.09Zm0,44.66h16.93c4.21,0,7.29-1.04,9.26-3.11,1.96-2.07,2.95-4.41,2.95-7.01s-.95-4.99-2.86-7.18c-1.91-2.19-5.41-3.28-10.5-3.28h-15.77v20.59Z"/>
      <path class="cls-3" d="m184.1,578.23v113.31h-34.78v-113.31h34.78Z"/>
      <path class="cls-3" d="m203.85,722.54v-113.31h57.52c11.95,0,20.67,3.02,26.15,9.05,5.48,6.03,8.22,12.92,8.22,20.67,0,5.64-1.59,10.75-4.77,15.32-3.18,4.56-7.93,7.71-14.24,9.42,14.66,3.54,22,12.34,22,26.4,0,8.41-2.59,15.92-7.76,22.54-5.17,6.61-16.23,9.92-33.16,9.92h-53.96Zm32.04-69.89h16.1c4.04,0,6.89-1.02,8.55-3.07,1.66-2.05,2.49-4.23,2.49-6.56,0-6.31-3.87-9.46-11.62-9.46h-15.52v19.09Zm0,44.66h16.93c4.21,0,7.29-1.04,9.26-3.11,1.96-2.07,2.95-4.41,2.95-7.01s-.95-4.99-2.86-7.18c-1.91-2.19-5.41-3.28-10.5-3.28h-15.77v20.59Z"/>
      <path class="cls-3" d="m359.66,605.37v86.16h-32.95v-86.16h-23.49v-27.14h79.94v27.14h-23.49Z"/>
      <path class="cls-3" d="m478.28,695.47v27.06h-85.25v-113.31h85.25v26.15h-51.13v16.44h41.34v25.15h-41.34v18.51h51.13Z"/>
      <path class="cls-3" d="m589.03,578.23l-32.93,52.56,38.16,60.75h-40.47l-20.92-35.68-21.12,35.68h-31.83l36.5-58.51-35-54.8h40.57l17.58,30.49,18.25-30.49h31.23Z"/>
    </g>
  </g>
  <g id="Layer_3" data-name="Layer 3">
    <polyline class="cls-2" points="5 69.14 5 796.74 621.8 796.74 621.8 133.14 492.2 3.54"/>
  </g>
</svg>