<?xml version="1.0" encoding="UTF-8"?>
<svg xmlns="http://www.w3.org/2000/svg" viewBox="0 0 626.88 801.74">
  <defs>
    <style>
      .cls-1 {
        fill: #d1d3d3;
      }

      .cls-2 {
        fill: none;
        stroke: #424242;
        stroke-miterlimit: 10;
        stroke-width: 10px;
      }

      .cls-3 {
        fill: #a4a9ad;
      }

      .cls-4 {
        fill: #e8e8e8;
      }

      .cls-5 {
        fill: #fb3449;
      }
    </style>
  </defs>
  <g id="Layer_2" data-name="Layer 2">
    <g id="Layer_1-2" data-name="Layer 1-2">
      <g>
        <polygon class="cls-4" points="493.57 1.54 .2 1.54 .2 801.54 626.88 801.54 626.88 134.86 493.57 1.54"/>
        <path class="cls-5" d="m520.46,397.16c-9.61-17.13-42.83-22.52-58.07-24.94-12.01-1.91-24.27-2.48-36.42-2.47-9.54-.06-18.94.41-28.21.93-3.42.23-6.81.53-10.19.82-3.47-3.59-6.82-7.3-10.06-11.09-20.63-24.43-37.29-52.13-50.87-80.91,3.6-13.91,6.49-28.42,8.23-43.5,3.18-27.51,4.27-58.87-6.04-85.1-3.56-9.05-13.05-20.07-24-14.59-12.59,6.31-16.13,24.19-17.16,36.87-.83,10.25-.25,20.52,1.47,30.59,1.75,10.14,4.57,19.77,7.64,29.39,2.87,8.82,6.02,17.57,9.47,26.24-2.18,6.82-4.5,13.53-6.94,20.06-5.68,14.89-11.82,29.04-17.72,42.64-3.11,6.75-6.16,13.35-9.14,19.81-9.44,20.73-19.68,41.07-31.18,60.74-26.82,9.46-50.88,20.43-70.87,33.31-10.72,6.93-20.19,14.45-28.08,22.7-7.45,7.79-15.01,17.9-15.68,29.09-.37,6.32,2.13,12.45,7.3,16.19,7.12,5.32,16.55,4.96,24.8,3.23,27.05-5.67,47.81-28.92,65.5-48.52,12.18-13.5,26.05-30.63,40.55-51.36.03-.05.06-.09.1-.14,24.88-7.71,51.95-14.22,80.69-19.01,13.13-2.18,26.6-3.96,40.35-5.21,9.67,9.05,20.11,17.3,31.5,24.18,8.87,5.46,18.31,10.07,28.19,13.51,9.99,3.26,20.04,5.93,30.42,7.62,5.24.75,10.6,1.09,16.07.88,12.22-.46,29.76-5.15,30.91-19.97.35-4.54-.63-8.52-2.59-12.01l.03.02Zm-292.54,27.2c-5.72,8.87-11.24,16.84-16.44,23.86-12.74,17.33-27.28,37.91-48.34,45.61-4,1.46-9.27,2.97-14.82,2.64-4.94-.29-9.82-2.47-9.6-8.09.11-2.94,1.55-6.69,3.75-10.37,2.41-4.04,5.4-7.74,8.64-11.15,6.94-7.29,15.71-14.35,25.8-20.89,15.48-10.04,33.95-19.08,54.55-27.14-1.18,1.87-2.37,3.74-3.54,5.53h0Zm71.83-222.33c-1.59-9.27-1.83-18.67-.85-27.71.49-4.52,1.41-8.93,2.74-13.07,1.13-3.51,3.57-12.07,7.46-13.17,6.41-1.82,8.38,11.95,9.11,15.84,4.13,22.15.49,46.79-4.47,68.52-.79,3.46-1.67,6.86-2.57,10.25-1.54-4.22-3-8.46-4.35-12.72-2.9-9.3-5.56-18.71-7.07-27.94h0Zm44.02,174.89c-24.09,3.91-47.01,9.02-68.55,15.06,2.59-.73,14.45-23.19,17.09-27.85,12.46-21.94,22.65-44.97,29.97-69.12,12.93,25.57,28.62,50.03,47.9,71.81,1.78,1.98,3.58,3.93,5.42,5.86-10.8,1.16-21.43,2.58-31.83,4.25h0Zm162.92,30.86c-.88,4.76-11.05,7.49-15.8,8.24-14.03,2.21-28.87.44-42.29-4.07-9.21-3.09-18.1-7.3-26.54-12.37-8.39-5.07-16.24-11.03-23.58-17.61,9.05-.54,18.21-.9,27.41-.73,9.2.09,18.48.56,27.64,1.75,17.18,1.92,36.43,7.81,49.95,18.96,2.66,2.2,3.51,4.14,3.2,5.82h0Z"/>
        <polygon class="cls-5" points="514.2 68.2 .2 68.2 .2 1.54 493.57 1.54 514.2 68.2"/>
        <g>
          <path class="cls-3" d="m248.23,637.85c0,14.15-4.17,25.07-12.51,32.77-8.34,7.71-20.19,11.56-35.55,11.56h-9.61v42h-34.2v-126.6h43.82c15.99,0,28,3.49,36.02,10.48,8.02,6.98,12.03,16.91,12.03,29.79h0Zm-57.67,16.45h6.24c5.14,0,9.22-1.44,12.25-4.33s4.55-6.87,4.55-11.95c0-8.54-4.73-12.82-14.2-12.82h-8.83v29.1h-.01Z"/>
          <path class="cls-3" d="m375.87,658.2c0,21.13-5.82,37.41-17.45,48.84s-27.99,17.15-49.05,17.15h-40.96v-126.6h43.82c20.32,0,36.01,5.2,47.06,15.59s16.58,25.4,16.58,45.03h0Zm-35.5,1.21c0-11.6-2.3-20.2-6.88-25.81-4.59-5.6-11.56-8.4-20.91-8.4h-9.96v70.92h7.62c10.39,0,18.01-3.02,22.86-9.05,4.85-6.03,7.27-15.25,7.27-27.66Z"/>
          <path class="cls-3" d="m432.24,724.18h-33.68v-126.6h74.82v27.45h-41.13v24.16h37.93v27.45h-37.93v47.54h-.01Z"/>
        </g>
        <polygon class="cls-1" points="493.57 134.86 626.88 134.86 493.57 1.54 493.57 134.86"/>
      </g>
    </g>
  </g>
  <g id="Layer_3" data-name="Layer 3">
    <polyline class="cls-2" points="5 69.14 5 796.74 621.8 796.74 621.8 133.14 492.2 3.54"/>
  </g>
</svg>